<?xml version="1.0" encoding="UTF-8"?>
<svg xmlns="http://www.w3.org/2000/svg" xmlns:xlink="http://www.w3.org/1999/xlink" width="4px" height="18px" viewBox="0 0 4 16" version="1.1">
<g id="surface1">
<path style=" stroke:none;fill-rule:evenodd;fill:rgb(0%,0%,0%);fill-opacity:1;" d="M 2.003906 0 C 3.109375 0 4.003906 0.875 4.003906 1.953125 C 4.003906 3.03125 3.109375 3.90625 2.003906 3.90625 C 0.898438 3.90625 0 3.03125 0 1.953125 C 0 0.875 0.898438 0 2.003906 0 Z M 2.003906 12.101562 C 3.109375 12.101562 4.003906 12.976562 4.003906 14.054688 C 4.003906 15.132812 3.109375 16.007812 2.003906 16.007812 C 0.898438 16.007812 0 15.132812 0 14.054688 C 0 12.976562 0.898438 12.101562 2.003906 12.101562 Z M 2.003906 6.050781 C 3.109375 6.050781 4.003906 6.925781 4.003906 8.003906 C 4.003906 9.082031 3.109375 9.957031 2.003906 9.957031 C 0.898438 9.957031 0 9.082031 0 8.003906 C 0 6.925781 0.898438 6.050781 2.003906 6.050781 Z M 2.003906 6.050781 "/>
</g>
</svg>
